# xmcd CD database file
# Copyright (C) 1997 Ti Kan
#
# Track frame offsets:
#  150
#  12665
#  29007
#  50975
#  67482
#  83830
#  96432
#  116192
#  127975
#  145357
#  161737
#  181507
#  198400
#  214722
#
# Disc length: 3285 seconds
#
# Revision: 1
# Processed by: cddbd v1.4b41PL1 Copyright (c) Steve Scherf et al.
# Submitted via: CDWizzard Release:4.32
#
DISCID=db0cd30e
DTITLE=Joe Murphy and The Water Street Blues Band - hate to see you go
DYEAR=1900
DGENRE=
TTITLE0=Juke
TTITLE1=300 lbs(of Heavenly Joy)
TTITLE2=Stand By Me
TTITLE3=I Got to Find My Baby
TTITLE4=Jambalaya
TTITLE5=It's Too Late Brother
TTITLE6=Colinda
TTITLE7=Please Set a date
TTITLE8=Lightnin'
TTITLE9=Have To See You Go
TTITLE10=Blue Skies Falling
TTITLE11=I'm On My Way
TTITLE12=Promised Land
TTITLE13=Telephone Blues
EXTD=
EXTT0=
EXTT1=
EXTT2=
EXTT3=
EXTT4=
EXTT5=
EXTT6=
EXTT7=
EXTT8=
EXTT9=
EXTT10=
EXTT11=
EXTT12=
EXTT13=
PLAYORDER=
